<?xml version="1.0" encoding="UTF-8"?>
<svg id="Layer_1" xmlns="http://www.w3.org/2000/svg" version="1.1" viewBox="0 0 202.27 52">
  <!-- Generator: Adobe Illustrator 30.0.0, SVG Export Plug-In . SVG Version: 2.1.1 Build 123)  -->
  <defs>
    <style>
      .st0 {
        isolation: isolate;
      }

      .st1 {
        fill: #fa0f00;
      }
    </style>
  </defs>
  <g id="Layer_11" data-name="Layer_1" focusable="false">
    <g>
      <polygon class="st1" points="38 0 60 0 60 52 38 0"/>
      <polygon class="st1" points="22.2 0 0 0 0 52 22.2 0"/>
      <polygon class="st1" points="30 19.2 44.2 52 35 52 30.8 41.6 20.4 41.6 30 19.2"/>
    </g>
    <g class="st0">
      <g class="st0">
        <path d="M68.95,23.33c-.17-.1-.24-.24-.24-.5v-3.5c0-.13.13-.2.27-.13,1.82,1.18,4.03,1.75,5.98,1.75,2.76,0,3.93-1.08,3.93-2.52,0-1.24-.81-2.18-3.36-3.26l-1.61-.67c-4.13-1.75-5.21-3.83-5.21-6.35,0-3.6,2.72-6.35,7.8-6.35,2.12,0,4.03.3,5.14.87.17.1.2.2.2.44v3.26c0,.13-.1.27-.3.13-1.28-.74-3.13-1.11-5.08-1.11-2.89,0-3.8,1.21-3.8,2.39s.77,2.05,3.43,3.16l1.28.54c4.37,1.82,5.61,3.93,5.61,6.59,0,3.93-3.09,6.49-8.17,6.49-2.45,0-4.5-.47-5.88-1.21Z"/>
        <path d="M101.41,15.36c0,6.15-4.98,9.18-10.05,9.18-.37,0-.71-.03-1.01-.07v6.05c0,.13-.03.24-.24.27-1.18.13-3.43.34-3.6.34-.2,0-.24-.03-.24-.2V10.79c0-.4-.03-1.51-.1-1.98,0-.03,0-.13.13-.17,1.51-.5,3.87-1.34,6.79-1.34,5.55,0,8.3,3.76,8.3,8.07ZM90.35,11.09v9.92c.37.1.91.1,1.34.1,2.62,0,5.55-1.55,5.55-5.48,0-3.06-1.65-4.87-4.5-4.87-.91,0-1.65.1-2.39.34Z"/>
        <path d="M107.87,16.84c.1,2.35,1.65,4.24,5.08,4.24,1.51,0,2.89-.27,4.17-.81.1-.07.2-.03.2.13v2.79c0,.2-.07.3-.2.37-1.28.61-2.76.97-5.04.97-6.12,0-8.3-4.3-8.3-8.44,0-4.67,2.82-8.81,7.9-8.81s6.89,3.9,6.89,7.09c0,.94-.03,1.71-.13,2.08-.03.13-.1.2-.27.24-.47.1-1.82.13-3.46.13h-6.82ZM112.88,13.95c1.28,0,1.71,0,1.85-.03v-.27c0-.98-.67-3.13-3.23-3.13-2.32,0-3.36,1.78-3.63,3.43h5.01Z"/>
        <path d="M133.44,23.73c0,.17-.03.24-.17.27-1.08.44-2.42.54-3.73.54-5.45,0-8.67-3.73-8.67-8.57s3.7-8.67,9.24-8.67c1.68,0,2.59.17,3.16.37.13.07.17.17.17.37l-.03,2.99c0,.24-.13.24-.27.2-.71-.27-1.58-.44-2.89-.44-3.06,0-5.21,1.81-5.21,5.04,0,3.66,2.66,5.08,5.24,5.08,1.21,0,2.25-.1,2.93-.34.17-.07.23.03.23.17v2.99Z"/>
        <path d="M145.14,23.66c0,.2-.03.34-.2.4-.91.34-1.75.47-2.86.47-2.76,0-4.4-1.34-4.4-4.67v-8.84h-2.12c-.17-.03-.23-.1-.23-.3v-2.82c0-.2.07-.27.27-.27h2.12c.03-1.18.17-3.29.34-4.13.03-.17.1-.27.27-.3l3.4-.47c.17-.03.24,0,.24.17-.1,1.11-.17,3.09-.17,4.74h3.26c.17,0,.23.07.23.24v2.92c0,.17-.07.24-.23.24h-3.29v7.97c0,1.48.47,2.18,1.92,2.18.44,0,.81-.03,1.28-.13.1-.03.2,0,.2.2v2.42Z"/>
        <path d="M151.19,7.63c.2,0,.3.07.37.27.17.44.3,1.28.34,2.02,1.14-1.41,3.06-2.62,5.38-2.62.2,0,.27.03.27.24v3.56c0,.17-.07.24-.3.24-2.39-.07-4.37.77-5.14,1.78v10.82c0,.2-.1.27-.3.27h-3.5c-.24,0-.3-.1-.3-.27v-11.6c0-1.45-.03-3.4-.17-4.5,0-.17.03-.2.2-.2h3.16Z"/>
        <path d="M173.84,20.5c0,1.75.13,2.76.2,3.46.03.17-.07.24-.27.24h-3.09c-.23,0-.3-.07-.34-.2-.1-.34-.2-.84-.24-1.18-1.45,1.34-3.16,1.71-4.67,1.71-3.19,0-5.65-1.71-5.65-6.42V7.86c0-.2.07-.24.27-.24h3.53c.2,0,.24.07.24.24v9.78c0,2.08.91,3.36,2.92,3.36,1.28,0,2.22-.44,3.06-1.21V7.86c0-.17.07-.24.27-.24h3.53c.2,0,.24.07.24.24v12.64Z"/>
        <path d="M178.38,24.2c-.2,0-.27-.1-.27-.3v-12.71c0-1.31-.07-2.69-.13-3.33-.03-.17.07-.24.27-.24h3.09c.17,0,.24.03.34.2.1.27.17.81.2,1.34,1.58-1.34,3.13-1.88,4.91-1.88,1.98,0,3.43.74,4.34,2.22,1.45-1.24,3.23-2.22,5.51-2.22,2.79,0,5.68,1.48,5.68,6.55v10.08c0,.2-.13.27-.3.27h-3.46c-.24,0-.3-.1-.3-.3v-9.68c0-1.92-.77-3.43-2.82-3.43-1.31,0-2.45.57-3.29,1.38.07.37.1,1.28.1,1.98v9.78c0,.17-.03.27-.24.27h-3.5c-.2,0-.3-.07-.3-.3v-9.78c0-2.22-1.01-3.29-2.82-3.29-1.21,0-2.19.4-3.19,1.24v11.87c0,.2-.07.27-.27.27h-3.53Z"/>
      </g>
    </g>
    <g class="st0">
      <g class="st0">
        <path d="M79.68,44.06h.02c.18-1,.65-3.39,1.9-9.02.02-.09.07-.14.18-.14h1.88c.11,0,.14.05.13.16l-3.03,11.51c-.04.09-.07.11-.18.11h-1.94c-.13,0-.14-.04-.18-.11-.54-2.33-1.74-7.46-2.1-9.23h-.02c-.32,1.81-1.72,6.99-2.29,9.18-.02.09-.05.16-.18.16h-1.9c-.11,0-.14-.05-.2-.14l-2.99-11.49c-.02-.11.02-.14.11-.14h2.03c.09,0,.16,0,.18.12,1.52,6.4,1.85,8.03,1.99,9.02h.02c.21-1.17.75-3.14,2.13-9,.02-.11.09-.14.18-.14h2.08c.09,0,.11.04.14.14.7,2.96,1.56,6.56,2.04,9.02Z"/>
        <path d="M86.26,42.75c.05,1.25.88,2.26,2.71,2.26.81,0,1.54-.14,2.22-.43.05-.04.11-.02.11.07v1.49c0,.11-.04.16-.11.2-.68.32-1.47.52-2.69.52-3.26,0-4.43-2.29-4.43-4.5,0-2.49,1.51-4.7,4.21-4.7s3.68,2.08,3.68,3.78c0,.5-.02.91-.07,1.11-.02.07-.05.11-.14.13-.25.05-.97.07-1.85.07h-3.64ZM88.93,41.21c.68,0,.91,0,.99-.02v-.14c0-.52-.36-1.67-1.72-1.67-1.24,0-1.79.95-1.94,1.83h2.67Z"/>
        <path d="M95.59,33.91c.13,0,.16.02.16.14l.02,3.85c.48-.16,1.04-.25,1.63-.25,2.58,0,4.23,1.83,4.23,4.23,0,3.32-2.58,4.97-5.24,4.97-.93,0-1.83-.13-2.69-.39-.07-.02-.13-.11-.13-.16v-12.26c0-.09.05-.13.13-.13h1.88ZM97.02,39.51c-.63,0-.97.09-1.25.2v5.24c.25.07.52.09.82.09,1.47,0,2.83-.93,2.83-2.92,0-1.7-.99-2.6-2.4-2.6Z"/>
        <path d="M115.72,46.3c0,.11-.04.2-.13.23-.59.21-1.47.32-2.47.32-3.32,0-6.15-1.96-6.15-6.04,0-3.6,2.51-6.1,6.42-6.1,1.17,0,1.88.11,2.33.3.07.04.11.09.11.2v1.7c0,.14-.07.14-.14.11-.57-.27-1.4-.39-2.33-.39-2.53,0-4.14,1.61-4.14,4.12,0,3.1,2.29,4.16,4.18,4.16.88,0,1.54-.07,2.21-.3.07-.04.13-.02.13.09v1.6Z"/>
        <path d="M125.4,42.22c0,2.78-1.77,4.64-4.3,4.64-2.99,0-4.32-2.31-4.32-4.59,0-2.55,1.67-4.61,4.36-4.61s4.27,2.1,4.27,4.55ZM118.97,42.23c0,1.65.81,2.8,2.17,2.8,1.11,0,2.06-.91,2.06-2.76,0-1.49-.65-2.8-2.17-2.8-1.2,0-2.06,1.06-2.06,2.76Z"/>
        <path d="M127.23,46.68c-.11,0-.14-.05-.14-.16v-6.78c0-.7-.04-1.43-.07-1.78-.02-.09.04-.12.14-.12h1.65c.09,0,.12.02.18.11.05.14.09.43.11.72.84-.72,1.67-1,2.62-1,1.06,0,1.83.39,2.31,1.18.77-.66,1.72-1.18,2.94-1.18,1.49,0,3.03.79,3.03,3.5v5.38c0,.11-.07.14-.16.14h-1.85c-.13,0-.16-.05-.16-.16v-5.16c0-1.02-.41-1.83-1.51-1.83-.7,0-1.31.3-1.76.73.04.2.05.68.05,1.06v5.22c0,.09-.02.14-.12.14h-1.87c-.11,0-.16-.04-.16-.16v-5.22c0-1.18-.54-1.76-1.51-1.76-.65,0-1.17.21-1.7.66v6.33c0,.11-.04.14-.14.14h-1.88Z"/>
        <path d="M150.33,41.96c0,3.28-2.65,4.9-5.36,4.9-.2,0-.38-.02-.54-.04v3.23c0,.07-.02.12-.12.14-.63.07-1.83.18-1.92.18-.11,0-.12-.02-.12-.11v-10.74c0-.22-.02-.81-.05-1.06,0-.02,0-.07.07-.09.81-.27,2.06-.72,3.62-.72,2.96,0,4.43,2.01,4.43,4.3ZM144.43,39.69v5.29c.2.05.48.05.72.05,1.4,0,2.96-.83,2.96-2.92,0-1.63-.88-2.6-2.4-2.6-.48,0-.88.05-1.27.18Z"/>
        <path d="M160.21,42.22c0,2.78-1.77,4.64-4.3,4.64-2.99,0-4.32-2.31-4.32-4.59,0-2.55,1.67-4.61,4.36-4.61s4.27,2.1,4.27,4.55ZM153.77,42.23c0,1.65.81,2.8,2.17,2.8,1.11,0,2.06-.91,2.06-2.76,0-1.49-.65-2.8-2.17-2.8-1.2,0-2.06,1.06-2.06,2.76Z"/>
        <path d="M161.89,39.9c0-.61-.04-1.58-.07-1.94,0-.09.02-.12.12-.12h1.63c.13,0,.18.04.21.12.05.16.09.39.13.68.77-.65,1.63-.99,2.6-.99,1.34,0,2.99.68,2.99,3.55v5.31c0,.12-.05.16-.14.16h-1.86c-.11,0-.16-.05-.16-.16v-5.11c0-1.18-.5-1.86-1.54-1.86-.72,0-1.31.27-1.74.74v6.26c0,.09-.05.14-.14.14h-1.88c-.11,0-.14-.05-.14-.14v-6.63Z"/>
        <path d="M173.4,42.75c.05,1.25.88,2.26,2.71,2.26.81,0,1.54-.14,2.22-.43.05-.04.11-.02.11.07v1.49c0,.11-.04.16-.11.2-.68.32-1.47.52-2.69.52-3.26,0-4.43-2.29-4.43-4.5,0-2.49,1.51-4.7,4.21-4.7s3.68,2.08,3.68,3.78c0,.5-.02.91-.07,1.11-.02.07-.05.11-.14.13-.25.05-.97.07-1.85.07h-3.64ZM176.07,41.21c.68,0,.91,0,.99-.02v-.14c0-.52-.36-1.67-1.72-1.67-1.24,0-1.79.95-1.94,1.83h2.67Z"/>
        <path d="M180.77,39.9c0-.61-.04-1.58-.07-1.94,0-.09.02-.12.13-.12h1.63c.12,0,.18.04.21.12.05.16.09.39.13.68.77-.65,1.63-.99,2.6-.99,1.34,0,2.99.68,2.99,3.55v5.31c0,.12-.05.16-.14.16h-1.87c-.11,0-.16-.05-.16-.16v-5.11c0-1.18-.5-1.86-1.54-1.86-.72,0-1.31.27-1.74.74v6.26c0,.09-.05.14-.14.14h-1.88c-.11,0-.14-.05-.14-.14v-6.63Z"/>
        <path d="M194.83,46.39c0,.11-.02.18-.11.22-.48.18-.93.25-1.52.25-1.47,0-2.35-.72-2.35-2.49v-4.72h-1.13c-.09-.02-.12-.05-.12-.16v-1.51c0-.11.04-.14.14-.14h1.13c.02-.63.09-1.76.18-2.21.02-.09.05-.14.14-.16l1.81-.25c.09-.02.12,0,.12.09-.05.59-.09,1.65-.09,2.53h1.74c.09,0,.12.04.12.12v1.56c0,.09-.04.12-.12.12h-1.76v4.25c0,.79.25,1.17,1.02,1.17.23,0,.43-.02.68-.07.05-.02.11,0,.11.11v1.29Z"/>
        <path d="M199.4,39.4c-.95,0-1.27.39-1.27.77s.27.66,1.42,1.11c2.04.75,2.74,1.56,2.74,2.83,0,1.68-1.33,2.74-3.53,2.74-1.06,0-1.99-.2-2.53-.5-.09-.05-.13-.09-.13-.2v-1.7c0-.09.07-.12.14-.09.77.5,1.76.72,2.56.72.93,0,1.38-.32,1.38-.79s-.34-.74-1.45-1.18c-1.95-.72-2.65-1.52-2.65-2.81,0-1.36,1.11-2.64,3.35-2.64,1.04,0,1.83.14,2.26.36.09.05.11.13.11.22v1.58c0,.09-.05.14-.16.11-.56-.31-1.45-.52-2.24-.52Z"/>
      </g>
    </g>
  </g>
</svg>