<svg width="10" height="10" viewBox="0 0 10 10" fill="none" xmlns="http://www.w3.org/2000/svg">
<g clip-path="url(#clip0_6481_6666)">
<path d="M6.28901 5L9.21143 2.07715C9.56739 1.7207 9.56739 1.14356 9.21143 0.788087C8.85498 0.432617 8.27784 0.432617 7.92237 0.788087L5.00001 3.71094L2.07765 0.788087C1.72218 0.432617 1.14503 0.432617 0.788586 0.788087C0.432626 1.14356 0.432626 1.72071 0.788586 2.07715L3.71101 5L0.788576 7.92285C0.432616 8.2793 0.432616 8.85644 0.788576 9.21191C0.966796 9.38964 1.19971 9.47851 1.43311 9.47851C1.66651 9.47851 1.89991 9.38964 2.07764 9.21191L5 6.28906L7.92236 9.21191C8.10009 9.38964 8.33349 9.47851 8.56689 9.47851C8.80029 9.47851 9.0332 9.38964 9.21142 9.21191C9.56738 8.85644 9.56738 8.27929 9.21142 7.92285L6.28901 5Z" fill="#131313"/>
</g>
<defs>
<clipPath id="clip0_6481_6666">
<rect width="10" height="10" fill="white"/>
</clipPath>
</defs>
</svg>
