<svg width="20" height="20" viewBox="0 0 20 20" fill="none" xmlns="http://www.w3.org/2000/svg">
<mask id="mask0_6481_1092" style="mask-type:alpha" maskUnits="userSpaceOnUse" x="0" y="0" width="20" height="20">
<path d="M18.7808 9.19434L16.7505 4.31739C16.165 2.91114 14.8071 2.00098 13.29 2.00001H4.25C3.00928 2.00001 2 3.00978 2 4.25099V9.75099C2 10.9912 3.00928 12.001 4.25 12.001H6.31592C7.30567 12.0039 7.60205 13.2471 7.94043 15.1445C8.22119 16.7178 8.53906 18.5 10.0649 18.5C11.9155 18.5 12.1279 17.0293 12.2441 16.2246C12.2456 16.2129 12.4502 13.6895 12.4502 13.6895C12.4819 13.3037 12.8101 13.001 13.1973 13.001H16.2422C17.1636 13.001 18.019 12.543 18.5303 11.7764C19.0415 11.0098 19.1353 10.0449 18.7808 9.19434ZM3.5 9.75098V4.25098C3.5 3.83692 3.83643 3.5 4.25 3.5H5.25V10.501H4.25C3.83643 10.501 3.5 10.1641 3.5 9.75098ZM17.2822 10.9443C17.0464 11.2979 16.6675 11.501 16.2422 11.501H13.1973C12.0352 11.501 11.0503 12.4082 10.9551 13.5674C10.9551 13.5674 10.7603 15.9814 10.7578 16.0244C10.6167 17 10.4985 16.9863 10.0444 16.998C9.77588 16.8916 9.53369 15.5342 9.41699 14.8809C9.10949 13.1562 8.69446 10.8372 6.75 10.5352V3.5H13.2895C14.1987 3.50098 15.0137 4.04785 15.3657 4.89355L17.396 9.7705C17.5596 10.1631 17.5181 10.5908 17.2822 10.9443Z" fill="#292929"/>
</mask>
<g mask="url(#mask0_6481_1092)">
<rect width="20" height="20" fill="#292929"/>
</g>
</svg>
