<svg width="48" height="48" viewBox="0 0 48 48" fill="none" xmlns="http://www.w3.org/2000/svg">
<path d="M10.8461 8H37.1539C40.3826 8 43 10.6863 43 14V14C43 17.3137 40.3826 20 37.1539 20H10.8461C7.61741 20 5 17.3137 5 14V14C5 10.6863 7.61741 8 10.8461 8Z" stroke="#292929" stroke-width="2.5" stroke-linecap="round" stroke-linejoin="round"/>
<path d="M24 21V27" stroke="#292929" stroke-width="2.5" stroke-linecap="round" stroke-linejoin="round"/>
<path d="M15 14H22" stroke="#292929" stroke-width="2.5" stroke-linecap="round" stroke-linejoin="round"/>
<path d="M11 14H11V14H11V14Z" stroke="#292929" stroke-width="2.5" stroke-linecap="round" stroke-linejoin="round"/>
<path d="M10.8461 28H37.1539C40.3826 28 43 30.6863 43 34V34C43 37.3137 40.3826 40 37.1539 40H10.8461C7.61741 40 5 37.3137 5 34V34C5 30.6863 7.61741 28 10.8461 28Z" stroke="#292929" stroke-width="2.5" stroke-linecap="round" stroke-linejoin="round"/>
<path d="M15 34H22" stroke="#292929" stroke-width="2.5" stroke-linecap="round" stroke-linejoin="round"/>
<path d="M11 34H11V34H11V34Z" stroke="#292929" stroke-width="2.5" stroke-linecap="round" stroke-linejoin="round"/>
</svg>
