<svg xmlns="http://www.w3.org/2000/svg" width="10" height="10" class="spectrum-UIIcon" viewBox="0 0 10 10">
  <path fill="var(--iconPrimary, #222)" d="M9.95 4.997c0-.052-.02-.102-.03-.153-.01-.058-.013-.118-.035-.173l-.003-.009a.8.8 0 0 0-.136-.203c-.018-.023-.026-.05-.047-.072l-.005-.005V4.38l-3.07-3.12a.875.875 0 1 0-1.248 1.227l1.61 1.637H.926a.875.875 0 1 0 0 1.75h6.062L5.376 7.512a.875.875 0 1 0 1.248 1.226l3.07-3.119.005-.006c.021-.021.029-.049.047-.072a.8.8 0 0 0 .136-.203l.003-.009c.022-.055.024-.115.035-.173.01-.051.03-.1.03-.153z"/>
</svg>
