<svg xmlns="http://www.w3.org/2000/svg" width="10" height="10" class="spectrum-UIIcon" viewBox="0 0 10 10">
  <path fill="var(--iconPrimary, #222)" d="M7.861 7.953c.062.063.1.146 0 .23l-1.293.834c-.1.063-.145.021-.187-.083l-1.6-2.793-2.105 2.314c-.021.04-.083.082-.145 0l-1-1.043c-.1-.062-.083-.125 0-.187l2.375-1.981-2.715-1.026c-.042 0-.1-.083-.063-.188l.707-1.412a.11.11 0 0 1 .136-.074q.03.01.052.034l2.378 1.54.146-3.043A.11.11 0 0 1 4.638.95h.034l1.73.23c.1 0 .125.042.1.146l-.814 2.979 2.751-.834c.062-.042.125-.042.167.083l.271 1.542c.02.1 0 .146-.083.146l-2.876.23z"/>
</svg>
