<svg xmlns="http://www.w3.org/2000/svg" width="10" height="10" class="spectrum-UIIcon" viewBox="0 0 10 10">
  <path fill="var(--iconPrimary, #222)" d="M7.965 5.178C7.978 5.118 8 5.061 8 5s-.021-.118-.034-.178c-.01-.05-.01-.102-.03-.15-.023-.058-.068-.107-.104-.16-.03-.042-.047-.09-.084-.127l-.004-.003-.003-.004L3.615.303a.875.875 0 1 0-1.23 1.244L5.88 5 2.385 8.453a.875.875 0 1 0 1.23 1.244L7.74 5.622l.003-.004.004-.003c.037-.038.055-.085.084-.127.036-.053.08-.102.104-.16.02-.048.02-.1.03-.15"/>
</svg>
